 <svg version="1.0" xmlns="http://www.w3.org/2000/svg" width="700.000000pt" height="700.000000pt" viewBox="0 0 700.000000 700.000000" preserveAspectRatio="xMidYMid meet">
<metadata>
Created by potrace 1.12, written by Peter Selinger 2001-2015
</metadata>
<g transform="translate(0.000000,700.000000) scale(0.100000,-0.100000)" fill="#000000" stroke="none">
<path d="M491 5519 c-64 -28 -432 -395 -466 -463 -35 -70 -34 -136 4 -201 41
-70 3320 -3345 3378 -3374 63 -31 135 -28 198 8 70 41 3345 3320 3374 3378 29
58 27 126 -4 189 -34 68 -402 435 -466 463 -53 25 -126 27 -177 6 -26 -11
-442 -420 -1435 -1413 l-1397 -1397 -1393 1392 c-959 959 -1405 1398 -1434
1412 -54 27 -124 27 -182 0z"></path>
</g>
</svg>