 <svg version="1.0" xmlns="http://www.w3.org/2000/svg" width="700.000000pt" height="700.000000pt" viewBox="0 0 700.000000 700.000000" preserveAspectRatio="xMidYMid meet">
<metadata>
Created by potrace 1.12, written by Peter Selinger 2001-2015
</metadata>
<g transform="translate(0.000000,700.000000) scale(0.100000,-0.100000)" fill="#000000" stroke="none">
<path d="M3415 5521 c-59 -27 -3357 -3327 -3391 -3393 -14 -27 -24 -65 -24
-88 0 -74 37 -123 252 -337 212 -211 255 -242 330 -243 95 0 40 -52 1526 1433
l1392 1392 1393 -1392 c1485 -1485 1430 -1433 1525 -1433 75 1 118 32 330 243
215 214 252 263 252 337 0 23 -10 61 -24 88 -32 63 -3337 3368 -3394 3394 -48
22 -117 21 -167 -1z"></path>
</g>
</svg>