 <svg version="1.0" xmlns="http://www.w3.org/2000/svg" width="700.000000pt" height="700.000000pt" viewBox="0 0 700.000000 700.000000" preserveAspectRatio="xMidYMid meet">
<metadata>
Created by potrace 1.12, written by Peter Selinger 2001-2015
</metadata>
<g transform="translate(0.000000,700.000000) scale(0.100000,-0.100000)" fill="#000000" stroke="none">
<path d="M4855 6971 c-70 -41 -3345 -3320 -3374 -3378 -31 -63 -28 -135 8
-198 41 -70 3320 -3345 3378 -3374 54 -27 124 -27 183 0 63 28 441 406 469
469 27 59 27 134 0 185 -13 25 -555 574 -1412 1433 l-1392 1392 1392 1393
c959 959 1398 1405 1412 1434 27 54 27 124 0 183 -28 63 -406 441 -469 469
-67 30 -134 27 -195 -8z"></path>
</g>
</svg>