 <svg version="1.0" xmlns="http://www.w3.org/2000/svg" width="700.000000pt" height="700.000000pt" viewBox="0 0 700.000000 700.000000" preserveAspectRatio="xMidYMid meet">
<metadata>
Created by potrace 1.12, written by Peter Selinger 2001-2015
</metadata>
<g transform="translate(0.000000,700.000000) scale(0.100000,-0.100000)" fill="#000000" stroke="none">
<path d="M1950 6979 c-63 -28 -441 -406 -469 -469 -27 -59 -27 -134 0 -185 13
-25 555 -574 1412 -1432 l1392 -1393 -1392 -1392 c-959 -960 -1398 -1406
-1412 -1435 -27 -54 -27 -124 0 -183 28 -63 406 -441 469 -469 59 -27 129 -27
183 0 58 29 3337 3304 3378 3374 22 39 29 62 29 105 0 43 -7 66 -29 105 -41
70 -3320 3345 -3378 3374 -54 27 -124 27 -183 0z"></path>
</g>
</svg>