 <svg version="1.0" xmlns="http://www.w3.org/2000/svg" width="700.000000pt" height="700.000000pt" viewBox="0 0 700.000000 700.000000" preserveAspectRatio="xMidYMid meet">
<metadata>
Created by potrace 1.12, written by Peter Selinger 2001-2015
</metadata>
<g transform="translate(0.000000,700.000000) scale(0.100000,-0.100000)" fill="#000000" stroke="none">
<path d="M2705 6217 c-22 -13 -140 -87 -263 -165 -122 -78 -307 -194 -410
-259 -206 -128 -657 -412 -712 -448 -19 -13 -195 -123 -390 -245 -487 -305
-536 -343 -663 -512 -117 -156 -191 -311 -240 -503 -29 -113 -30 -375 -3 -490
71 -297 249 -583 461 -739 70 -52 131 -91 680 -436 160 -101 313 -197 340
-215 28 -17 122 -77 210 -132 88 -55 359 -226 602 -379 244 -154 574 -362 735
-463 161 -102 385 -243 498 -314 247 -156 261 -163 311 -148 53 16 79 53 79
112 0 65 -15 78 -256 228 -109 68 -343 215 -519 326 -176 111 -426 269 -555
350 -129 81 -329 207 -445 280 -115 73 -340 215 -500 315 -159 100 -312 197
-340 215 -27 18 -185 116 -349 219 -346 217 -383 243 -455 321 -133 146 -224
322 -272 525 -19 79 -17 279 4 366 38 161 119 322 234 467 82 102 96 113 503
369 329 208 778 490 950 598 85 54 303 191 483 305 181 114 336 209 345 212
10 2 101 -49 217 -123 110 -70 351 -221 535 -337 371 -233 806 -507 860 -542
19 -13 116 -74 215 -135 278 -174 636 -400 675 -425 19 -13 202 -128 405 -256
577 -363 941 -593 965 -609 22 -15 17 -19 -166 -135 -104 -65 -218 -137 -254
-160 -36 -23 -128 -81 -205 -129 -77 -48 -214 -134 -305 -192 -509 -321 -559
-353 -685 -431 -424 -263 -493 -317 -621 -478 -178 -225 -294 -537 -294 -789
1 -281 163 -474 399 -476 61 0 155 26 231 65 69 34 98 52 540 332 157 99 384
242 505 318 1004 632 933 584 1018 675 85 91 136 181 171 304 47 161 28 291
-56 382 -54 59 -109 78 -197 71 -87 -7 -94 -11 -436 -227 -154 -97 -343 -216
-420 -264 -171 -107 -392 -246 -625 -394 -96 -61 -227 -143 -290 -182 -317
-196 -344 -215 -364 -253 -25 -52 -15 -97 30 -136 69 -61 33 -78 659 318 105
66 341 215 525 330 184 116 409 258 500 316 315 199 410 257 430 262 15 4 22
-2 31 -23 34 -90 -77 -332 -187 -405 -39 -26 -335 -214 -734 -464 -113 -71
-227 -143 -255 -160 -101 -65 -545 -345 -729 -459 -233 -146 -275 -166 -345
-166 -96 0 -141 48 -161 175 -32 198 69 493 246 715 74 95 147 157 281 242
126 81 888 562 1138 718 814 511 951 600 967 627 41 66 13 129 -83 187 -69 43
-532 334 -589 371 -19 13 -141 89 -270 170 -129 81 -257 162 -285 180 -27 17
-122 77 -210 132 -88 55 -272 172 -410 258 -137 87 -405 256 -595 375 -390
245 -938 590 -1390 875 -168 106 -315 197 -327 204 -34 17 -74 13 -118 -12z"></path>
<path d="M2718 5314 c-33 -17 -58 -62 -58 -101 0 -54 32 -85 188 -183 231
-144 246 -154 557 -350 160 -101 334 -210 388 -244 53 -34 122 -77 152 -96 30
-19 103 -65 162 -102 60 -37 182 -115 273 -172 91 -58 203 -128 250 -157 47
-29 238 -149 425 -268 321 -204 343 -216 388 -216 42 0 52 4 78 33 23 26 29
42 29 78 0 41 -5 51 -38 83 -21 20 -65 52 -98 72 -52 32 -666 418 -799 503
-27 18 -72 46 -100 63 -68 42 -731 459 -775 488 -76 50 -848 533 -891 558 -51
30 -91 33 -131 11z"></path>
<path d="M2255 5021 c-17 -7 -239 -145 -455 -282 -25 -16 -148 -93 -275 -173
-126 -79 -246 -157 -265 -174 -31 -27 -35 -36 -35 -81 0 -68 12 -78 270 -238
116 -72 365 -227 555 -345 411 -256 403 -252 445 -244 48 9 313 182 336 220
29 48 25 90 -15 134 -30 32 -40 37 -78 37 -37 0 -59 -10 -147 -67 -57 -38
-108 -68 -113 -68 -5 0 -44 22 -86 49 -42 27 -234 146 -427 266 -192 119 -360
223 -372 231 -40 25 -57 12 257 209 351 221 439 275 446 275 4 0 81 -46 171
-102 89 -57 217 -137 283 -178 310 -193 450 -282 450 -285 0 -2 -22 -17 -50
-35 -72 -46 -100 -83 -100 -132 0 -32 7 -47 33 -73 44 -44 79 -52 124 -31 51
24 263 164 295 194 51 47 43 131 -15 173 -19 14 -453 287 -979 616 -164 103
-211 122 -253 104z"></path>
<path d="M868 4074 c-60 -32 -76 -121 -33 -172 14 -17 60 -52 103 -78 276
-171 823 -510 852 -529 19 -13 139 -87 265 -165 127 -79 293 -182 370 -230 77
-48 262 -163 410 -255 149 -92 353 -220 455 -283 350 -218 385 -239 407 -251
49 -25 116 -3 147 49 33 56 13 119 -51 162 -37 25 -129 83 -423 265 -80 50
-228 142 -330 205 -256 159 -879 546 -1155 718 -126 79 -295 183 -375 233 -80
50 -226 141 -325 202 -255 159 -259 161 -317 129z"></path>
<path d="M3798 4034 c-52 -28 -72 -98 -43 -153 15 -31 17 -32 510 -341 182
-114 403 -253 493 -309 90 -57 176 -106 192 -111 75 -21 140 30 140 111 0 60
-20 81 -161 168 -57 36 -207 130 -334 210 -390 245 -659 412 -687 427 -34 18
-76 17 -110 -2z"></path>
<path d="M3344 3740 c-39 -16 -74 -68 -74 -112 0 -58 27 -80 320 -262 140 -87
325 -203 410 -256 499 -314 480 -304 533 -297 30 4 50 15 71 38 25 28 28 38
24 81 -4 35 -12 56 -29 73 -23 22 -1101 696 -1166 729 -35 18 -57 19 -89 6z"></path>
<path d="M2864 3431 c-37 -16 -64 -60 -64 -104 0 -34 6 -46 43 -81 24 -22 128
-93 232 -157 105 -64 346 -213 536 -332 391 -243 415 -257 447 -257 87 0 145
115 92 183 -12 15 -164 115 -338 223 -174 109 -389 243 -477 297 -353 221
-369 230 -410 233 -22 2 -50 0 -61 -5z"></path>
</g>
</svg>