 <svg version="1.0" xmlns="http://www.w3.org/2000/svg" width="700.000000pt" height="700.000000pt" viewBox="0 0 700.000000 700.000000" preserveAspectRatio="xMidYMid meet">
<metadata>
Created by potrace 1.12, written by Peter Selinger 2001-2015
</metadata>
<g transform="translate(0.000000,700.000000) scale(0.100000,-0.100000)" fill="#000000" stroke="none">
<path d="M2860 6709 c-65 -29 -127 -94 -150 -157 -19 -51 -20 -79 -20 -1012
l0 -959 -572 -3 c-556 -3 -574 -4 -618 -24 -117 -54 -188 -216 -145 -331 15
-42 142 -173 1002 -1034 727 -727 998 -993 1032 -1010 64 -32 158 -32 222 0
34 17 305 283 1032 1010 860 861 987 992 1002 1034 43 115 -28 277 -145 331
-44 20 -62 21 -617 24 l-573 3 0 959 c0 933 -1 961 -20 1012 -23 63 -85 128
-150 157 -44 20 -63 21 -640 21 -577 0 -596 -1 -640 -21z"></path>
<path d="M283 2405 c-106 -33 -214 -131 -255 -233 l-23 -57 -3 -754 c-2 -735
-2 -756 18 -815 38 -115 140 -217 254 -256 59 -20 81 -20 3226 -20 3145 0
3167 0 3226 20 114 39 216 141 254 256 20 59 20 80 18 815 l-3 754 -23 58
c-33 81 -116 168 -200 209 l-67 33 -1030 2 -1030 3 -305 -303 c-168 -166 -335
-324 -371 -350 -135 -96 -253 -136 -429 -144 -178 -8 -314 24 -458 108 -39 23
-162 138 -387 362 l-331 327 -1019 -1 c-814 0 -1029 -3 -1062 -14z m4940
-1086 c91 -46 146 -123 154 -218 10 -107 -37 -197 -132 -256 -43 -27 -57 -30
-129 -30 -70 0 -87 4 -128 27 -191 113 -182 374 17 476 56 29 161 30 218 1z
m1083 -3 c129 -60 189 -224 128 -353 -25 -52 -79 -102 -142 -131 -169 -77
-364 57 -363 249 0 102 62 197 156 240 59 27 156 25 221 -5z"></path>
</g>
</svg>