 <svg version="1.0" xmlns="http://www.w3.org/2000/svg" width="700.000000pt" height="700.000000pt" viewBox="0 0 700.000000 700.000000" preserveAspectRatio="xMidYMid meet">
<metadata>
Created by potrace 1.12, written by Peter Selinger 2001-2015
</metadata>
<g transform="translate(0.000000,700.000000) scale(0.100000,-0.100000)" fill="#000000" stroke="none">
<path d="M3398 6987 c-61 -23 -96 -47 -354 -248 l-249 -194 -670 -5 c-662 -5
-671 -5 -724 -27 -110 -45 -170 -106 -213 -213 -22 -54 -23 -66 -26 -538 l-3
-482 -42 -34 c-42 -35 -332 -261 -522 -408 -458 -354 -567 -442 -580 -468 -13
-26 -15 -263 -13 -2072 l3 -2043 28 -53 c38 -72 100 -132 173 -168 l59 -29
3220 -3 3220 -3 67 26 c82 32 154 97 194 175 l29 55 3 2043 c2 1811 0 2046
-13 2072 -9 17 -107 101 -238 202 -690 535 -855 664 -884 692 l-33 30 0 480
c0 478 -1 481 -23 537 -31 75 -69 122 -130 162 -98 63 -70 61 -802 67 l-670 5
-250 195 c-306 238 -331 253 -440 257 -51 2 -93 -2 -117 -10z m165 -244 c8 -4
69 -51 136 -103 l121 -95 -160 -3 c-88 -1 -232 -1 -320 0 l-160 3 125 98 c69
54 139 104 157 111 30 13 67 9 101 -11z m1999 -481 l33 -32 5 -1093 c4 -861 8
-1097 18 -1114 17 -31 63 -53 108 -53 28 0 44 8 70 34 l34 34 0 460 c0 274 4
463 9 467 11 6 55 -27 494 -369 169 -132 307 -245 307 -250 -1 -6 -49 -48
-108 -92 -59 -45 -213 -165 -342 -265 -129 -101 -284 -222 -345 -268 -60 -47
-220 -171 -355 -276 -135 -105 -364 -284 -510 -397 -146 -113 -275 -217 -288
-230 -67 -73 -13 -188 88 -188 43 0 55 7 225 140 83 64 303 235 490 380 187
146 500 388 695 540 535 416 567 440 574 433 3 -3 6 -836 6 -1850 0 -1363 -3
-1843 -11 -1843 -7 0 -134 95 -283 212 -149 117 -350 273 -446 347 -96 74
-285 221 -420 326 -351 274 -672 524 -920 715 -118 91 -339 262 -490 380 -151
117 -327 254 -390 303 -167 130 -194 142 -310 142 -116 0 -143 -12 -310 -142
-63 -49 -239 -186 -390 -303 -151 -118 -372 -288 -490 -380 -213 -165 -449
-348 -920 -715 -135 -105 -294 -229 -355 -275 -60 -47 -191 -148 -290 -225
-346 -272 -495 -385 -505 -385 -12 0 -14 3686 -3 3693 8 5 55 -31 488 -368
116 -89 406 -315 645 -500 239 -186 513 -398 608 -472 95 -74 186 -139 203
-145 73 -25 149 33 149 113 0 62 66 6 -840 709 -223 173 -556 432 -740 575
-185 144 -348 270 -363 280 -15 9 -27 23 -27 30 0 10 696 560 773 609 26 18
27 18 27 0 0 -11 0 -207 0 -437 0 -262 3 -432 10 -457 14 -50 60 -90 106 -90
43 0 89 23 106 53 10 17 14 253 18 1114 l5 1091 25 27 c14 15 34 31 45 36 11
4 928 7 2037 6 l2018 -2 32 -33z m-2009 -3654 c12 -6 110 -79 217 -163 107
-83 499 -387 870 -675 371 -288 756 -587 855 -664 99 -77 329 -255 510 -396
527 -409 595 -462 595 -471 0 -5 -1395 -9 -3100 -9 -1796 0 -3100 4 -3100 9 0
5 150 125 333 267 182 142 463 360 622 484 160 124 472 367 695 540 223 172
515 400 650 505 135 105 286 222 335 260 50 38 149 115 220 171 72 56 148 113
169 128 42 28 93 34 129 14z"></path>
<path d="M3360 6060 c-258 -25 -513 -128 -720 -291 -289 -227 -465 -529 -526
-899 -27 -165 -14 -389 32 -560 98 -361 350 -687 670 -866 187 -105 439 -174
633 -174 110 0 141 17 164 92 9 26 -11 82 -37 107 -21 20 -44 25 -158 37 -281
30 -478 111 -678 280 -170 144 -294 339 -362 569 -32 108 -33 114 -33 305 0
170 3 206 22 280 59 222 153 390 308 546 135 135 284 228 457 285 590 192
1216 -99 1450 -674 68 -166 70 -188 75 -581 5 -408 4 -414 -71 -484 -69 -64
-162 -79 -246 -41 -56 25 -86 53 -113 104 -21 38 -22 58 -27 325 -5 309 -7
318 -62 346 -77 40 -161 -11 -173 -103 -19 -158 -49 -228 -137 -319 -69 -72
-161 -120 -263 -135 -184 -29 -386 73 -473 240 -44 84 -55 138 -50 244 3 82 8
102 41 170 77 164 203 246 419 272 86 11 131 76 105 152 -20 60 -55 78 -146
76 -173 -6 -327 -76 -461 -212 -98 -99 -147 -187 -181 -322 -37 -146 -16 -337
51 -469 73 -143 177 -248 316 -318 110 -55 165 -67 319 -66 120 0 149 4 205
24 89 31 136 56 198 102 29 21 56 37 61 34 5 -3 11 -25 15 -48 9 -55 67 -162
114 -211 90 -93 203 -140 337 -140 219 0 394 136 449 350 13 49 16 122 16 377
0 382 -13 481 -93 703 -100 275 -333 552 -595 706 -248 145 -564 215 -852 187z"></path>
</g>
</svg>