 <svg version="1.0" xmlns="http://www.w3.org/2000/svg" width="700.000000pt" height="700.000000pt" viewBox="0 0 700.000000 700.000000" preserveAspectRatio="xMidYMid meet">
<metadata>
Created by potrace 1.12, written by Peter Selinger 2001-2015
</metadata>
<g transform="translate(0.000000,700.000000) scale(0.100000,-0.100000)" fill="#000000" stroke="none">
<path d="M3305 5580 c-169 -9 -278 -21 -445 -51 -119 -21 -306 -63 -350 -79
-14 -5 -65 -21 -115 -36 -519 -158 -1058 -466 -1530 -873 -312 -269 -800 -815
-848 -948 -38 -105 -14 -196 85 -322 657 -836 1423 -1404 2253 -1672 153 -50
177 -56 285 -82 299 -72 535 -98 860 -98 257 0 427 14 640 52 120 22 307 64
350 79 14 5 66 21 115 36 519 158 1058 466 1530 873 312 269 800 815 848 948
38 105 14 196 -85 322 -657 836 -1423 1404 -2253 1672 -160 52 -178 57 -310
88 -338 78 -679 108 -1030 91z m485 -640 c279 -59 535 -194 729 -383 221 -215
355 -460 423 -772 32 -147 31 -438 -1 -579 -135 -589 -558 -1012 -1147 -1147
-141 -32 -432 -33 -579 -1 -219 48 -414 134 -575 252 -372 275 -584 667 -606
1125 -26 531 235 1026 692 1312 111 70 164 96 281 137 98 34 256 71 338 80 92
10 352 -4 445 -24z"></path>
<path d="M3345 4279 c-165 -41 -285 -108 -401 -223 -100 -101 -147 -176 -197
-314 -30 -83 -31 -95 -32 -237 0 -130 3 -160 23 -225 84 -265 279 -460 542
-542 65 -20 95 -23 225 -23 142 1 154 2 237 32 140 51 213 97 314 197 101 102
147 175 196 312 27 78 32 105 36 220 3 110 1 144 -17 215 -67 272 -288 500
-556 575 -71 19 -309 28 -370 13z"></path>
</g>
</svg>