 <svg version="1.0" xmlns="http://www.w3.org/2000/svg" width="700.000000pt" height="700.000000pt" viewBox="0 0 700.000000 700.000000" preserveAspectRatio="xMidYMid meet">
<metadata>
Created by potrace 1.12, written by Peter Selinger 2001-2015
</metadata>
<g transform="translate(0.000000,700.000000) scale(0.100000,-0.100000)" fill="#000000" stroke="none">
<path d="M4140 6993 c-14 -2 -80 -13 -148 -24 -593 -97 -1037 -471 -1226
-1030 -86 -255 -97 -358 -103 -951 -3 -274 -6 -499 -7 -500 0 -1 -217 -5 -481
-8 -460 -5 -481 -6 -507 -25 -61 -46 -58 -15 -58 -692 0 -584 1 -620 19 -646
42 -64 19 -62 546 -67 l480 -5 5 -1470 c5 -1447 5 -1471 25 -1504 11 -18 36
-42 55 -52 33 -18 69 -19 658 -19 685 0 668 -1 713 61 l24 34 5 1475 5 1475
562 5 561 5 27 25 c56 51 55 40 55 692 0 584 -1 604 -20 636 -11 18 -34 41
-52 52 -32 19 -52 20 -570 20 -295 0 -543 3 -552 6 -14 5 -16 49 -16 389 0
412 7 492 52 582 38 76 116 133 228 166 20 6 215 13 450 16 461 7 457 6 499
74 21 34 21 43 21 609 l0 575 -22 33 c-13 18 -39 41 -58 51 -33 18 -67 19
-590 18 -305 -1 -566 -4 -580 -6z"></path>
</g>
</svg>