 <svg version="1.0" xmlns="http://www.w3.org/2000/svg" width="700.000000pt" height="1050.000000pt" viewBox="0 0 700.000000 1050.000000" preserveAspectRatio="xMidYMid meet">
<metadata>
Created by potrace 1.12, written by Peter Selinger 2001-2015
</metadata>
<g transform="translate(0.000000,1050.000000) scale(0.100000,-0.100000)" fill="#000000" stroke="none">
<path d="M180 9835 l0 -665 1918 -2 1917 -3 0 -2140 c0 -2207 0 -2237 -41
-2645 -80 -808 -276 -1465 -575 -1925 -378 -582 -907 -903 -1669 -1015 -233
-34 -430 -43 -833 -37 -466 7 -524 12 -869 74 l-28 5 0 -720 0 -720 62 -6
c295 -28 874 -41 1168 -27 1600 79 2643 565 3357 1566 445 624 744 1498 864
2526 l12 107 116 21 c235 44 486 149 654 274 379 280 621 773 716 1457 45 327
46 365 46 1815 l0 1380 -737 3 -738 2 0 670 0 670 -2670 0 -2670 0 0 -665z
m6208 -2205 c3 -912 -5 -1270 -33 -1499 -76 -610 -273 -994 -594 -1159 -69
-36 -177 -76 -224 -84 -17 -3 -18 66 -17 1811 0 998 3 1818 6 1823 3 4 197 7
432 6 l427 -3 3 -895z"></path>
</g>
</svg>