 <svg version="1.0" xmlns="http://www.w3.org/2000/svg" width="700.000000pt" height="700.000000pt" viewBox="0 0 700.000000 700.000000" preserveAspectRatio="xMidYMid meet">
<metadata>
Created by potrace 1.12, written by Peter Selinger 2001-2015
</metadata>
<g transform="translate(0.000000,700.000000) scale(0.100000,-0.100000)" fill="#000000" stroke="none">
<path d="M601 6816 c-52 -13 -136 -45 -190 -71 -82 -41 -110 -62 -192 -144
-78 -79 -102 -111 -136 -181 -64 -131 -77 -192 -78 -355 0 -117 4 -153 24
-220 92 -317 362 -528 709 -554 213 -16 391 17 557 102 111 57 243 189 302
302 77 148 104 300 83 464 -23 175 -86 314 -197 432 -165 174 -358 249 -643
248 -117 0 -163 -5 -239 -23z"></path>
<path d="M5020 4760 c-86 -10 -260 -52 -340 -83 -176 -66 -349 -176 -489 -311
-65 -63 -205 -231 -237 -285 -10 -17 -22 -31 -26 -31 -4 0 -8 140 -8 310 l0
310 -747 0 -748 0 0 -2258 0 -2257 745 0 745 0 6 1360 c4 910 10 1377 17 1410
31 145 134 330 240 432 149 143 308 214 512 228 232 17 446 -62 580 -213 62
-70 153 -250 175 -346 51 -226 48 -160 54 -1561 l6 -1310 748 -3 747 -2 0
1392 c0 1321 -1 1402 -20 1563 -49 422 -150 724 -333 994 -255 374 -643 602
-1127 661 -95 11 -401 11 -500 0z"></path>
<path d="M97 4663 c-4 -3 -7 -1020 -7 -2260 l0 -2253 748 2 747 3 0 2255 0
2255 -741 3 c-407 1 -744 -1 -747 -5z"></path>
</g>
</svg>