 <svg version="1.0" xmlns="http://www.w3.org/2000/svg" width="700.000000pt" height="700.000000pt" viewBox="0 0 700.000000 700.000000" preserveAspectRatio="xMidYMid meet">
<metadata>
Created by potrace 1.12, written by Peter Selinger 2001-2015
</metadata>
<g transform="translate(0.000000,700.000000) scale(0.100000,-0.100000)" fill="#000000" stroke="none">
<path d="M665 6259 c-163 -19 -309 -92 -436 -218 -99 -98 -154 -189 -197 -321
l-27 -85 0 -1665 0 -1665 24 -75 c87 -272 280 -461 545 -531 38 -10 73 -24 77
-31 5 -7 9 -182 9 -389 0 -301 3 -383 14 -410 23 -55 80 -107 138 -124 64 -19
62 -19 129 1 52 15 73 35 509 470 l455 454 2230 2 2230 3 75 23 c132 41 225
97 326 197 104 102 158 190 202 325 l27 85 0 1665 0 1665 -27 85 c-43 132 -98
223 -197 321 -131 130 -272 199 -451 219 -105 12 -5553 11 -5655 -1z m5715
-233 c189 -64 319 -192 376 -371 18 -58 19 -115 19 -1685 0 -1570 -1 -1627
-19 -1685 -56 -177 -173 -295 -366 -369 l-55 -21 -2262 -5 -2263 -5 -465 -465
-464 -464 -3 429 c-3 391 -5 432 -21 456 -23 34 -52 46 -129 54 -231 24 -415
172 -484 390 -18 58 -19 115 -19 1685 0 1570 1 1627 19 1685 66 208 243 357
456 385 30 4 1308 7 2840 6 2688 -1 2787 -2 2840 -20z"></path>
<path d="M932 5377 c-62 -35 -73 -113 -23 -169 l29 -33 2562 0 2562 0 29 33
c36 40 41 82 16 130 -27 55 142 52 -2609 52 -2020 -1 -2548 -3 -2566 -13z"></path>
<path d="M957 4730 c-38 -12 -58 -29 -73 -67 -18 -42 -1 -98 39 -127 l28 -21
1234 0 1234 0 28 21 c15 12 34 32 42 46 30 53 -15 139 -80 152 -48 9 -2420 5
-2452 -4z"></path>
<path d="M3810 4734 c-61 -21 -90 -58 -90 -114 0 -21 11 -42 34 -68 l34 -37
1130 0 1131 0 28 21 c40 30 57 85 39 129 -8 18 -27 42 -42 52 -27 17 -82 18
-1139 20 -610 1 -1117 -1 -1125 -3z"></path>
<path d="M944 4070 c-37 -15 -64 -59 -64 -104 0 -34 6 -48 31 -72 l30 -29
2015 0 2016 0 30 34 c27 30 30 39 25 79 -3 30 -13 53 -31 71 l-26 26 -2003 2
c-1101 1 -2012 -2 -2023 -7z"></path>
<path d="M5304 4061 c-60 -37 -69 -124 -18 -172 l26 -24 373 0 374 0 30 29
c43 41 44 102 2 148 l-29 33 -364 3 c-342 2 -365 1 -394 -17z"></path>
<path d="M917 3397 c-52 -42 -52 -120 -1 -168 l26 -24 307 0 c335 0 349 2 377
57 24 47 18 86 -20 124 l-34 34 -314 0 c-309 0 -313 0 -341 -23z"></path>
<path d="M1894 3386 c-38 -38 -44 -77 -20 -124 32 -61 -122 -57 2127 -57
l2057 0 26 24 c51 48 51 126 -1 168 l-28 23 -2063 0 -2064 0 -34 -34z"></path>
<path d="M943 2755 c-83 -36 -87 -157 -7 -193 36 -17 5092 -17 5128 0 82 37
76 158 -9 194 -51 21 -5064 20 -5112 -1z"></path>
</g>
</svg>