 <svg version="1.0" xmlns="http://www.w3.org/2000/svg" width="700.000000pt" height="700.000000pt" viewBox="0 0 700.000000 700.000000" preserveAspectRatio="xMidYMid meet">
<metadata>
Created by potrace 1.12, written by Peter Selinger 2001-2015
</metadata>
<g transform="translate(0.000000,700.000000) scale(0.100000,-0.100000)" fill="#000000" stroke="none">
<path d="M825 6982 c-154 -53 -256 -169 -285 -322 -6 -32 -10 -329 -10 -767 0
-770 -1 -752 53 -802 54 -49 153 -33 201 32 21 28 21 40 26 770 4 567 8 747
17 764 7 12 28 32 45 45 l33 23 2045 0 2045 0 36 -22 c70 -44 64 185 67 -2637
1 -1668 -1 -2571 -8 -2595 -5 -20 -24 -50 -40 -66 l-31 -30 -2050 -3 c-1902
-2 -2053 -1 -2086 15 -19 9 -44 30 -54 47 -18 30 -19 77 -19 1326 0 1249 -1
1296 -19 1337 -25 54 -61 77 -122 77 -58 0 -95 -23 -122 -75 -16 -32 -17 -111
-15 -1354 3 -1487 -3 -1367 82 -1482 47 -64 127 -124 203 -151 44 -15 202 -17
2093 -20 1448 -2 2064 0 2110 8 36 6 88 22 117 35 103 47 199 165 222 275 9
41 11 713 9 2670 l-3 2615 -31 65 c-50 105 -136 181 -248 220 -59 20 -74 20
-2135 20 -1943 -1 -2079 -2 -2126 -18z"></path>
<path d="M5713 6430 c-17 -10 -38 -29 -45 -42 -11 -19 -14 -522 -18 -2743 -5
-2697 -5 -2720 -25 -2754 -11 -18 -36 -42 -55 -52 -33 -18 -100 -19 -1933 -19
-1723 0 -1902 -1 -1933 -16 -68 -33 -95 -125 -54 -191 41 -68 -126 -63 2022
-61 l1943 3 67 32 c112 53 192 149 223 269 13 53 15 356 13 2784 -3 2707 -3
2725 -23 2752 -42 57 -124 74 -182 38z"></path>
<path d="M1385 5976 c-16 -7 -41 -26 -55 -41 l-25 -27 0 -713 0 -714 30 -31
c16 -17 45 -35 65 -41 23 -7 269 -9 717 -7 l682 3 36 35 c19 19 40 51 45 72 7
24 10 279 8 705 -3 628 -4 670 -21 698 -10 17 -31 39 -45 50 -26 19 -44 20
-717 22 -561 2 -696 0 -720 -11z m1225 -781 l0 -515 -520 0 -520 0 0 515 0
515 520 0 520 0 0 -515z"></path>
<path d="M3480 5983 c-67 -21 -100 -67 -100 -136 0 -58 42 -111 101 -127 25
-7 210 -10 531 -8 471 3 494 4 526 23 93 56 87 192 -12 239 -30 14 -92 16
-533 15 -274 0 -505 -3 -513 -6z"></path>
<path d="M6294 5899 c-42 -12 -82 -54 -94 -98 -6 -24 -10 -951 -10 -2729 0
-2968 5 -2725 -62 -2774 l-33 -23 -2190 -5 c-2069 -5 -2192 -6 -2218 -23 -69
-45 -75 -143 -13 -206 l36 -36 2223 0 2222 0 67 32 c126 60 213 170 238 302 7
35 10 987 10 2755 0 2616 -1 2702 -19 2736 -30 57 -98 87 -157 69z"></path>
<path d="M3443 5311 c-62 -39 -82 -125 -43 -189 39 -63 35 -63 610 -60 l519 3
31 30 c61 58 61 142 -1 201 l-30 29 -527 3 c-509 2 -528 2 -559 -17z"></path>
<path d="M614 4706 c-62 -28 -96 -108 -71 -167 28 -66 95 -102 161 -85 40 10
85 55 96 96 28 104 -87 201 -186 156z"></path>
<path d="M3474 4669 c-18 -5 -46 -25 -63 -44 -60 -69 -33 -174 56 -211 26 -11
130 -14 516 -14 267 0 499 3 517 6 44 9 96 63 104 109 11 55 -25 122 -78 146
-38 17 -73 19 -531 18 -269 0 -504 -5 -521 -10z"></path>
<path d="M2145 3801 c-16 -10 -109 -98 -205 -195 -96 -97 -179 -176 -184 -176
-4 0 -51 40 -102 90 -103 97 -143 117 -203 100 -87 -25 -127 -122 -82 -196 22
-36 291 -303 324 -321 27 -15 77 -16 114 -2 32 12 484 457 515 508 26 42 28
109 4 146 -40 61 -123 82 -181 46z"></path>
<path d="M2914 3589 c-18 -5 -46 -25 -63 -44 -38 -44 -43 -109 -11 -159 39
-64 -8 -61 910 -61 918 0 871 -3 910 61 32 50 27 115 -11 158 -17 20 -47 40
-67 46 -47 13 -1624 12 -1668 -1z"></path>
<path d="M2155 2764 c-16 -9 -114 -100 -217 -202 l-188 -187 -92 92 c-105 102
-121 113 -175 113 -112 0 -172 -125 -104 -216 33 -45 264 -273 301 -298 40
-27 110 -21 156 13 21 16 143 134 270 262 242 245 254 261 237 327 -21 85
-117 134 -188 96z"></path>
<path d="M2905 2546 c-84 -36 -113 -141 -58 -207 52 -61 16 -59 905 -59 788 0
813 1 853 20 50 24 75 65 75 120 0 55 -25 96 -75 120 -40 19 -64 20 -856 20
-654 -1 -820 -3 -844 -14z"></path>
<path d="M1160 802 c-42 -21 -80 -75 -80 -114 0 -75 61 -138 133 -138 142 0
190 193 63 254 -44 21 -73 20 -116 -2z"></path>
</g>
</svg>