 <svg version="1.0" xmlns="http://www.w3.org/2000/svg" width="700.000000pt" height="700.000000pt" viewBox="0 0 700.000000 700.000000" preserveAspectRatio="xMidYMid meet">
<metadata>
Created by potrace 1.12, written by Peter Selinger 2001-2015
</metadata>
<g transform="translate(0.000000,700.000000) scale(0.100000,-0.100000)" fill="#000000" stroke="none">
<path d="M1910 6984 c-183 -48 -320 -181 -374 -363 -15 -50 -16 -329 -16
-3121 0 -2792 1 -3071 16 -3121 55 -184 192 -316 379 -364 52 -13 254 -15
1585 -15 1331 0 1533 2 1585 15 187 48 324 180 379 364 15 50 16 329 16 3121
0 2792 -1 3071 -16 3121 -55 184 -192 316 -379 364 -87 22 -3090 22 -3175 -1z
m3167 -243 c29 -13 72 -45 97 -71 61 -65 78 -125 74 -261 l-3 -104 -1745 0
-1745 0 -3 104 c-4 133 14 196 71 258 44 48 94 78 154 92 22 5 686 8 1543 8
l1505 -2 52 -24z m168 -2891 l0 -2215 -1745 0 -1745 0 -3 2205 c-1 1213 0
2211 3 2218 3 10 358 12 1747 10 l1743 -3 0 -2215z m5 -2908 c0 -526 -1 -532
-76 -612 -25 -27 -68 -58 -97 -71 l-52 -24 -1525 0 -1525 0 -52 24 c-29 13
-72 44 -97 71 -75 80 -76 86 -76 612 l0 458 1750 0 1750 0 0 -458z"></path>
<path d="M2978 6634 c-35 -18 -58 -62 -58 -110 0 -28 8 -44 34 -70 l34 -34
279 0 279 0 34 35 c28 29 33 41 32 80 0 50 -17 77 -64 101 -40 21 -531 20
-570 -2z"></path>
<path d="M3789 6627 c-21 -14 -39 -38 -48 -63 -12 -36 -12 -44 4 -77 26 -55
57 -67 171 -67 96 0 96 0 130 34 39 39 45 86 19 136 -23 45 -62 60 -158 60
-71 0 -89 -4 -118 -23z"></path>
<path d="M3368 1264 c-111 -34 -231 -132 -280 -228 -70 -136 -70 -295 -1 -433
35 -70 127 -164 191 -197 190 -96 406 -64 550 83 145 148 178 363 84 547 -50
98 -170 195 -284 229 -64 19 -197 19 -260 -1z m238 -242 c138 -71 166 -260 54
-369 -48 -47 -89 -63 -160 -63 -71 0 -112 16 -160 63 -89 86 -92 235 -7 325
65 70 185 89 273 44z"></path>
<path d="M418 6482 c-35 -23 -139 -141 -185 -210 -245 -369 -299 -822 -148
-1231 64 -174 183 -361 293 -463 58 -54 87 -65 136 -48 46 15 76 57 76 107 0
42 -14 68 -70 128 -89 95 -189 271 -233 410 -65 208 -65 460 0 670 34 110 123
277 188 355 108 128 115 140 115 188 0 37 -6 50 -34 78 -27 27 -42 34 -72 34
-22 0 -51 -8 -66 -18z"></path>
<path d="M6444 6466 c-28 -28 -34 -41 -34 -78 0 -48 12 -69 75 -138 92 -101
182 -261 228 -405 83 -264 60 -579 -60 -820 -44 -87 -123 -207 -173 -260 -56
-61 -70 -86 -70 -128 0 -71 70 -129 136 -113 61 16 203 184 289 340 142 261
197 587 146 868 -47 261 -150 481 -312 664 -74 84 -103 104 -152 104 -31 0
-46 -7 -73 -34z"></path>
<path d="M930 6259 c-73 -29 -218 -228 -269 -369 -53 -149 -56 -167 -56 -360
0 -217 13 -279 95 -445 54 -109 165 -257 210 -280 50 -26 98 -19 136 19 29 29
34 41 34 79 0 41 -7 54 -67 129 -251 315 -243 710 20 1017 41 48 47 61 47 101
0 54 -20 87 -66 106 -38 16 -50 16 -84 3z"></path>
<path d="M6003 6233 c-32 -6 -81 -58 -85 -91 -6 -47 8 -77 70 -153 96 -119
137 -203 167 -347 48 -232 -15 -461 -182 -659 -68 -80 -75 -140 -22 -193 26
-26 38 -30 82 -30 50 0 53 2 112 63 110 116 206 305 240 476 24 117 16 354
-14 461 -29 101 -108 261 -169 340 -55 72 -115 130 -137 130 -7 0 -19 2 -27 4
-7 2 -23 1 -35 -1z"></path>
</g>
</svg>