 <svg version="1.0" xmlns="http://www.w3.org/2000/svg" width="700.000000pt" height="700.000000pt" viewBox="0 0 700.000000 700.000000" preserveAspectRatio="xMidYMid meet">
<metadata>
Created by potrace 1.12, written by Peter Selinger 2001-2015
</metadata>
<g transform="translate(0.000000,700.000000) scale(0.100000,-0.100000)" fill="#000000" stroke="none">
<path d="M4620 6325 c-417 -68 -778 -311 -1003 -675 -155 -251 -227 -565 -198
-862 7 -73 15 -150 18 -170 l5 -38 -63 6 c-504 44 -894 137 -1309 312 -178 75
-403 188 -510 257 -264 169 -397 264 -550 394 -101 86 -354 337 -437 434 -41
48 -78 87 -84 87 -14 0 -77 -132 -114 -239 -57 -166 -77 -284 -77 -471 0 -129
5 -188 22 -270 65 -321 229 -608 457 -802 43 -37 92 -79 108 -93 l30 -26 -77
6 c-152 12 -322 59 -473 131 -46 22 -73 30 -80 23 -16 -16 21 -291 55 -407
134 -456 506 -832 955 -967 50 -15 97 -29 105 -32 32 -12 -162 -43 -305 -49
-113 -4 -168 -2 -225 9 -41 8 -77 13 -79 11 -8 -7 30 -105 76 -199 147 -296
399 -540 694 -670 158 -70 314 -111 460 -122 104 -7 105 -6 -15 -91 -300 -215
-685 -382 -1061 -461 -242 -51 -388 -64 -673 -59 -138 2 -252 2 -252 -1 2 -19
463 -258 634 -328 495 -204 1007 -303 1563 -303 372 0 695 38 1043 125 946
233 1762 815 2314 1650 137 207 195 308 291 507 272 567 411 1149 420 1756 2
128 5 235 7 236 1 2 59 48 128 103 140 112 333 307 435 440 38 48 86 109 107
136 47 57 38 59 -69 16 -111 -44 -274 -97 -373 -120 -73 -17 -124 -27 -282
-54 -39 -6 -35 9 10 36 155 94 346 306 452 502 47 87 110 234 103 240 -2 3
-43 -17 -91 -44 -189 -106 -486 -220 -712 -273 l-105 -25 -55 53 c-216 207
-489 339 -797 385 -93 14 -327 12 -423 -4z"></path>
</g>
</svg>