 <svg version="1.0" xmlns="http://www.w3.org/2000/svg" width="700.000000pt" height="700.000000pt" viewBox="0 0 700.000000 700.000000" preserveAspectRatio="xMidYMid meet">
<metadata>
Created by potrace 1.12, written by Peter Selinger 2001-2015
</metadata>
<g transform="translate(0.000000,700.000000) scale(0.100000,-0.100000)" fill="#000000" stroke="none">
<path d="M267 4659 c-106 -25 -209 -115 -246 -215 -21 -54 -21 -71 -21 -944 0
-875 0 -890 21 -945 29 -77 102 -154 181 -191 l63 -29 3235 0 3235 0 63 29
c79 37 152 114 181 191 21 55 21 70 21 945 0 875 0 890 -21 945 -29 77 -102
154 -181 191 l-63 29 -3215 2 c-1846 0 -3231 -3 -3253 -8z m4393 -1159 l0
-930 -2161 0 c-1979 0 -2164 1 -2195 16 -67 32 -64 -14 -64 914 0 926 -3 881
62 913 30 15 219 17 2196 17 l2162 0 0 -930z m2036 914 c67 -32 64 14 64 -914
0 -928 3 -882 -64 -914 -31 -14 -120 -16 -910 -16 l-876 0 0 930 0 930 876 0
c790 0 879 -2 910 -16z"></path>
<path d="M725 4094 c-38 -8 -85 -17 -103 -20 -18 -4 -34 -10 -37 -13 -2 -4 50
-274 115 -601 l119 -595 35 -32 c30 -27 44 -33 82 -33 69 0 105 40 128 145 10
44 27 118 37 165 11 47 30 130 43 185 l23 100 10 -40 c11 -38 20 -80 78 -349
15 -66 33 -132 40 -146 44 -85 178 -81 213 7 12 30 33 126 57 257 8 43 17 86
20 95 4 14 55 271 91 456 18 95 40 204 61 298 10 47 13 81 7 87 -9 9 -223 54
-229 48 -1 -1 -26 -122 -55 -268 -57 -293 -58 -300 -68 -300 -4 0 -18 51 -31
113 -79 370 -84 387 -133 417 -40 24 -77 25 -116 3 -41 -23 -59 -57 -78 -144
-9 -41 -22 -101 -30 -134 -8 -33 -23 -102 -34 -153 -11 -52 -23 -99 -27 -105
-6 -10 -19 41 -48 193 -16 86 -40 204 -54 270 -6 25 -13 60 -16 78 -4 17 -12
31 -18 31 -7 -1 -43 -7 -82 -15z"></path>
<path d="M2005 4094 c-38 -8 -85 -17 -102 -20 -23 -5 -33 -12 -33 -25 0 -33
230 -1169 240 -1189 31 -58 124 -78 174 -39 36 28 51 60 70 149 52 244 86 392
92 402 7 11 15 -18 64 -237 62 -279 60 -273 97 -305 67 -59 169 -28 192 58 11
39 232 1137 235 1162 1 10 -28 20 -109 37 -60 12 -114 21 -119 20 -5 -2 -33
-122 -62 -268 -61 -302 -63 -313 -69 -307 -3 2 -21 76 -40 164 -71 320 -75
332 -107 359 -52 44 -100 45 -152 4 -35 -28 -41 -45 -77 -209 -53 -247 -71
-321 -78 -315 -3 4 -31 133 -61 288 -42 210 -60 282 -70 283 -8 1 -46 -4 -85
-12z"></path>
<path d="M3255 4088 c-55 -11 -101 -22 -103 -23 -5 -4 48 -282 134 -700 9 -44
22 -109 29 -145 37 -190 67 -328 77 -353 35 -89 182 -89 216 0 13 36 33 117
77 323 41 186 43 195 51 187 4 -3 14 -43 24 -89 10 -46 32 -148 49 -228 18
-80 34 -156 37 -169 3 -13 20 -39 39 -58 27 -27 41 -33 74 -33 58 0 94 22 114
67 15 34 236 1114 240 1172 2 20 -4 26 -33 33 -49 11 -184 38 -192 38 -6 0
-19 -51 -38 -150 -6 -30 -19 -100 -30 -155 -27 -133 -50 -258 -50 -267 0 -5
-4 -8 -8 -8 -5 0 -14 26 -20 58 -28 139 -92 414 -101 431 -19 35 -71 71 -104
71 -38 0 -91 -30 -108 -62 -7 -13 -18 -48 -25 -78 -80 -366 -94 -424 -99 -418
-2 2 -29 129 -60 283 -31 154 -59 283 -62 288 -6 9 -12 9 -128 -15z"></path>
<path d="M5615 4200 c-141 -31 -241 -86 -329 -182 -106 -114 -156 -243 -156
-403 0 -165 51 -288 169 -406 183 -184 432 -229 664 -122 l78 37 204 -204 204
-204 68 65 c119 113 132 74 -102 309 l-204 205 34 70 c43 88 55 143 55 253 0
165 -53 295 -165 408 -78 78 -150 123 -246 154 -72 23 -214 34 -274 20z m241
-269 c157 -70 241 -256 187 -417 -34 -100 -94 -167 -192 -212 -73 -33 -193
-35 -264 -4 -104 46 -174 130 -204 244 -15 58 -16 74 -4 129 29 144 116 240
251 276 61 17 169 9 226 -16z"></path>
</g>
</svg>