 <svg version="1.0" xmlns="http://www.w3.org/2000/svg" width="700.000000pt" height="700.000000pt" viewBox="0 0 700.000000 700.000000" preserveAspectRatio="xMidYMid meet">
<metadata>
Created by potrace 1.12, written by Peter Selinger 2001-2015
</metadata>
<g transform="translate(0.000000,700.000000) scale(0.100000,-0.100000)" fill="#000000" stroke="none">
<path d="M3260 6984 c-219 -34 -362 -80 -565 -180 -178 -87 -323 -192 -471
-339 -293 -292 -466 -652 -519 -1078 -19 -158 -19 -284 0 -423 60 -426 229
-770 525 -1064 243 -242 575 -418 920 -491 133 -27 444 -38 583 -19 716 95
1309 604 1512 1298 86 294 91 661 14 952 -139 516 -481 936 -958 1175 -148 74
-293 121 -481 157 -142 27 -428 33 -560 12z m509 -294 c554 -100 1007 -490
1184 -1021 113 -336 99 -716 -37 -1058 -99 -247 -279 -477 -511 -652 -544
-410 -1329 -393 -1859 40 -155 127 -316 323 -397 484 -125 246 -176 478 -166
747 12 307 93 564 257 808 107 161 314 358 480 459 130 79 308 148 465 181
134 28 137 29 316 31 118 1 183 -4 268 -19z"></path>
<path d="M3285 3154 c-292 -23 -585 -93 -868 -208 -366 -149 -658 -340 -936
-611 -463 -452 -749 -999 -851 -1630 -27 -162 -40 -403 -33 -573 l6 -132 2897
0 2897 0 6 137 c36 800 -273 1590 -846 2164 -226 226 -482 411 -757 548 -303
150 -540 226 -885 282 -117 19 -500 33 -630 23z m629 -313 c721 -126 1323
-506 1738 -1097 255 -363 415 -802 458 -1259 5 -60 10 -129 10 -152 l0 -43
-2620 0 -2620 0 0 48 c0 133 39 402 81 562 123 463 339 845 674 1189 381 391
897 658 1450 750 178 30 170 29 450 26 210 -2 283 -7 379 -24z"></path>
</g>
</svg>